<svg xmlns="http://www.w3.org/2000/svg" xmlns:xlink="http://www.w3.org/1999/xlink" viewBox="0 0 482.09 612.4"><defs><style>.cls-1{fill:url(#Gradiente_sem_nome_106);}.cls-2{fill:url(#Gradiente_sem_nome_106-2);}</style><linearGradient id="Gradiente_sem_nome_106" x1="1114.54" y1="749.54" x2="1289.03" y2="850.29" gradientUnits="userSpaceOnUse"><stop offset="0" stop-color="#00adee"/><stop offset="1" stop-color="#4254a4"/></linearGradient><linearGradient id="Gradiente_sem_nome_106-2" x1="995.24" y1="418.95" x2="1412.8" y2="660.04" xlink:href="#Gradiente_sem_nome_106"/></defs><title>Símbolo</title><g id="Camada_19" data-name="Camada 19"><path class="cls-1" d="M1323.17,790.7l-1.08,1.08L1218.64,895.22a10.39,10.39,0,0,1-14.73,0l-104-104a11,11,0,0,1,11.47-18.09.18.18,0,0,1,.11,0c.26.11.52.23.8.33,0,0,0,0,0,0l.14.07a266.55,266.55,0,0,0,198.39-.29,11,11,0,0,1,12.34,17.43Z" transform="translate(-970.23 -285.88)"/><path class="cls-2" d="M1452.32,526.93a241,241,0,0,1-482.09,0c0-133.12,107.93-241,241-241a24.58,24.58,0,0,1,24.58,24.59v75.88a142.68,142.68,0,1,1-49.17,0V336.62c-94.34,12.07-167.27,92.69-167.27,190.31a191.87,191.87,0,0,0,383.73,0,24.59,24.59,0,1,1,49.17,0Z" transform="translate(-970.23 -285.88)"/></g></svg>